<mxfile host="app.diagrams.net" agent="Mozilla/5.0 (Macintosh; Intel Mac OS X 10_15_7) AppleWebKit/537.36 (KHTML, like Gecko) Chrome/131.0.0.0 Safari/537.36" version="25.0.1" pages="2">
  <diagram name="第 1 页" id="4ehV55ny_UHVLfQ4jq1b">
    <mxGraphModel dx="1434" dy="697" grid="0" gridSize="10" guides="1" tooltips="1" connect="1" arrows="1" fold="1" page="1" pageScale="1" pageWidth="2339" pageHeight="3300" math="0" shadow="0">
      <root>
        <mxCell id="0" />
        <mxCell id="1" parent="0" />
        <mxCell id="U9eTumjgss6MhKt13I3X-26" value="" style="rounded=0;whiteSpace=wrap;html=1;fillColor=none;dashed=1;fontSize=14;" vertex="1" parent="1">
          <mxGeometry x="668" y="266" width="357" height="269" as="geometry" />
        </mxCell>
        <mxCell id="U9eTumjgss6MhKt13I3X-16" value="" style="rounded=0;whiteSpace=wrap;html=1;fillColor=none;dashed=1;fontSize=14;" vertex="1" parent="1">
          <mxGeometry x="333" y="408" width="266" height="97" as="geometry" />
        </mxCell>
        <mxCell id="U9eTumjgss6MhKt13I3X-5" value="" style="rounded=0;whiteSpace=wrap;html=1;fillColor=none;dashed=1;fontSize=14;" vertex="1" parent="1">
          <mxGeometry x="172" y="118" width="169" height="107" as="geometry" />
        </mxCell>
        <mxCell id="U9eTumjgss6MhKt13I3X-7" value="" style="edgeStyle=orthogonalEdgeStyle;rounded=0;orthogonalLoop=1;jettySize=auto;html=1;fontSize=14;" edge="1" parent="1" source="9E0ZcPi0yjbch_tlZuDv-1">
          <mxGeometry relative="1" as="geometry">
            <mxPoint x="256.5" y="335" as="targetPoint" />
          </mxGeometry>
        </mxCell>
        <mxCell id="9E0ZcPi0yjbch_tlZuDv-1" value="风光发电" style="rounded=1;whiteSpace=wrap;html=1;fontSize=14;" parent="1" vertex="1">
          <mxGeometry x="213.5" y="150" width="86" height="43" as="geometry" />
        </mxCell>
        <mxCell id="U9eTumjgss6MhKt13I3X-1" value="" style="shape=flexArrow;endArrow=classic;html=1;rounded=0;width=6;endSize=5.33;fontSize=14;" edge="1" parent="1">
          <mxGeometry width="50" height="50" relative="1" as="geometry">
            <mxPoint x="98" y="150" as="sourcePoint" />
            <mxPoint x="171" y="150" as="targetPoint" />
          </mxGeometry>
        </mxCell>
        <mxCell id="U9eTumjgss6MhKt13I3X-2" value="风" style="text;html=1;align=center;verticalAlign=middle;whiteSpace=wrap;rounded=0;fontSize=14;" vertex="1" parent="1">
          <mxGeometry x="89" y="115" width="60" height="30" as="geometry" />
        </mxCell>
        <mxCell id="U9eTumjgss6MhKt13I3X-3" value="" style="shape=flexArrow;endArrow=classic;html=1;rounded=0;width=6;endSize=5.33;fontSize=14;" edge="1" parent="1">
          <mxGeometry width="50" height="50" relative="1" as="geometry">
            <mxPoint x="99" y="193" as="sourcePoint" />
            <mxPoint x="172" y="193" as="targetPoint" />
          </mxGeometry>
        </mxCell>
        <mxCell id="U9eTumjgss6MhKt13I3X-4" value="光" style="text;html=1;align=center;verticalAlign=middle;whiteSpace=wrap;rounded=0;fontSize=14;" vertex="1" parent="1">
          <mxGeometry x="92" y="207" width="60" height="30" as="geometry" />
        </mxCell>
        <mxCell id="U9eTumjgss6MhKt13I3X-8" value="电解制氢" style="rounded=1;whiteSpace=wrap;html=1;shadow=1;fontSize=14;" vertex="1" parent="1">
          <mxGeometry x="200.25" y="339" width="112.5" height="38" as="geometry" />
        </mxCell>
        <mxCell id="U9eTumjgss6MhKt13I3X-9" value="" style="endArrow=classic;html=1;rounded=0;fontSize=14;" edge="1" parent="1">
          <mxGeometry width="50" height="50" relative="1" as="geometry">
            <mxPoint x="318" y="358" as="sourcePoint" />
            <mxPoint x="660" y="358" as="targetPoint" />
          </mxGeometry>
        </mxCell>
        <mxCell id="U9eTumjgss6MhKt13I3X-10" value="" style="endArrow=classic;html=1;rounded=0;fontSize=14;" edge="1" parent="1">
          <mxGeometry width="50" height="50" relative="1" as="geometry">
            <mxPoint x="394" y="366" as="sourcePoint" />
            <mxPoint x="394" y="429" as="targetPoint" />
          </mxGeometry>
        </mxCell>
        <mxCell id="U9eTumjgss6MhKt13I3X-11" value="氢气压缩" style="rounded=1;whiteSpace=wrap;html=1;shadow=1;fontSize=14;" vertex="1" parent="1">
          <mxGeometry x="361" y="440" width="70" height="31" as="geometry" />
        </mxCell>
        <mxCell id="U9eTumjgss6MhKt13I3X-12" value="储氢装置" style="rounded=1;whiteSpace=wrap;html=1;shadow=1;fontSize=14;" vertex="1" parent="1">
          <mxGeometry x="499" y="440" width="70" height="31" as="geometry" />
        </mxCell>
        <mxCell id="U9eTumjgss6MhKt13I3X-13" value="" style="endArrow=classic;html=1;rounded=0;fontSize=14;" edge="1" parent="1">
          <mxGeometry width="50" height="50" relative="1" as="geometry">
            <mxPoint x="439" y="455" as="sourcePoint" />
            <mxPoint x="491" y="455" as="targetPoint" />
          </mxGeometry>
        </mxCell>
        <mxCell id="U9eTumjgss6MhKt13I3X-14" value="" style="endArrow=classic;html=1;rounded=0;fontSize=14;" edge="1" parent="1">
          <mxGeometry width="50" height="50" relative="1" as="geometry">
            <mxPoint x="534" y="430" as="sourcePoint" />
            <mxPoint x="533.5" y="367" as="targetPoint" />
          </mxGeometry>
        </mxCell>
        <mxCell id="U9eTumjgss6MhKt13I3X-15" value="供给氢气 H2" style="text;html=1;align=center;verticalAlign=middle;whiteSpace=wrap;rounded=0;fontSize=14;" vertex="1" parent="1">
          <mxGeometry x="434" y="314" width="83" height="30" as="geometry" />
        </mxCell>
        <mxCell id="U9eTumjgss6MhKt13I3X-17" value="氢气储罐" style="text;html=1;align=center;verticalAlign=middle;whiteSpace=wrap;rounded=0;fontSize=14;" vertex="1" parent="1">
          <mxGeometry x="335" y="478" width="60" height="30" as="geometry" />
        </mxCell>
        <mxCell id="U9eTumjgss6MhKt13I3X-18" value="合成气压缩" style="rounded=1;whiteSpace=wrap;html=1;shadow=1;fontSize=14;" vertex="1" parent="1">
          <mxGeometry x="678" y="342.5" width="82" height="31" as="geometry" />
        </mxCell>
        <mxCell id="U9eTumjgss6MhKt13I3X-19" value="" style="endArrow=classic;html=1;rounded=0;fontSize=14;" edge="1" parent="1">
          <mxGeometry width="50" height="50" relative="1" as="geometry">
            <mxPoint x="761" y="357.5" as="sourcePoint" />
            <mxPoint x="809" y="358" as="targetPoint" />
          </mxGeometry>
        </mxCell>
        <mxCell id="U9eTumjgss6MhKt13I3X-20" value="合成氨装置" style="rounded=1;whiteSpace=wrap;html=1;shadow=1;fontSize=14;" vertex="1" parent="1">
          <mxGeometry x="830" y="342.5" width="115" height="31" as="geometry" />
        </mxCell>
        <mxCell id="U9eTumjgss6MhKt13I3X-21" value="空分" style="rounded=1;whiteSpace=wrap;html=1;shadow=1;fontSize=14;" vertex="1" parent="1">
          <mxGeometry x="830" y="474" width="70" height="31" as="geometry" />
        </mxCell>
        <mxCell id="U9eTumjgss6MhKt13I3X-22" value="" style="shape=flexArrow;endArrow=classic;html=1;rounded=0;width=6;endSize=5.33;fontSize=14;" edge="1" parent="1">
          <mxGeometry width="50" height="50" relative="1" as="geometry">
            <mxPoint x="993" y="489" as="sourcePoint" />
            <mxPoint x="920" y="489" as="targetPoint" />
          </mxGeometry>
        </mxCell>
        <mxCell id="U9eTumjgss6MhKt13I3X-23" value="空气" style="text;html=1;align=center;verticalAlign=middle;whiteSpace=wrap;rounded=0;fontSize=14;" vertex="1" parent="1">
          <mxGeometry x="941" y="456" width="60" height="30" as="geometry" />
        </mxCell>
        <mxCell id="U9eTumjgss6MhKt13I3X-24" value="" style="edgeStyle=segmentEdgeStyle;endArrow=classic;html=1;curved=0;rounded=0;endSize=8;startSize=8;fontSize=14;" edge="1" parent="1">
          <mxGeometry width="50" height="50" relative="1" as="geometry">
            <mxPoint x="817" y="489" as="sourcePoint" />
            <mxPoint x="712" y="385" as="targetPoint" />
          </mxGeometry>
        </mxCell>
        <mxCell id="U9eTumjgss6MhKt13I3X-25" value="分离氮气 N2" style="text;html=1;align=center;verticalAlign=middle;whiteSpace=wrap;rounded=0;fontSize=14;" vertex="1" parent="1">
          <mxGeometry x="724" y="456" width="83" height="30" as="geometry" />
        </mxCell>
        <mxCell id="U9eTumjgss6MhKt13I3X-27" value="" style="endArrow=classic;html=1;rounded=0;fontSize=14;" edge="1" parent="1">
          <mxGeometry width="50" height="50" relative="1" as="geometry">
            <mxPoint x="965" y="358" as="sourcePoint" />
            <mxPoint x="1071" y="358" as="targetPoint" />
          </mxGeometry>
        </mxCell>
        <mxCell id="U9eTumjgss6MhKt13I3X-29" value="风光发电模块" style="text;html=1;align=center;verticalAlign=middle;whiteSpace=wrap;rounded=0;fontColor=#FF0000;fontSize=14;" vertex="1" parent="1">
          <mxGeometry x="167" y="68" width="174" height="30" as="geometry" />
        </mxCell>
        <mxCell id="U9eTumjgss6MhKt13I3X-30" value="" style="endArrow=classic;html=1;rounded=0;fontSize=14;" edge="1" parent="1">
          <mxGeometry width="50" height="50" relative="1" as="geometry">
            <mxPoint x="261" y="284" as="sourcePoint" />
            <mxPoint x="659" y="284" as="targetPoint" />
          </mxGeometry>
        </mxCell>
        <mxCell id="U9eTumjgss6MhKt13I3X-31" value="绿电供给合成氨装置" style="text;html=1;align=center;verticalAlign=middle;whiteSpace=wrap;rounded=0;fontSize=14;" vertex="1" parent="1">
          <mxGeometry x="393" y="245" width="183" height="30" as="geometry" />
        </mxCell>
        <mxCell id="U9eTumjgss6MhKt13I3X-32" value="A模块-电解槽制氢" style="text;html=1;align=center;verticalAlign=middle;whiteSpace=wrap;rounded=0;fontColor=#FF0000;fontSize=14;" vertex="1" parent="1">
          <mxGeometry x="169.5" y="378" width="174" height="30" as="geometry" />
        </mxCell>
        <mxCell id="U9eTumjgss6MhKt13I3X-33" value="B模块-氢气储存装置" style="text;html=1;align=center;verticalAlign=middle;whiteSpace=wrap;rounded=0;fontColor=#FF0000;fontSize=14;" vertex="1" parent="1">
          <mxGeometry x="379" y="515" width="174" height="30" as="geometry" />
        </mxCell>
        <mxCell id="U9eTumjgss6MhKt13I3X-34" value="C模块-合成氨装置模块" style="text;html=1;align=center;verticalAlign=middle;whiteSpace=wrap;rounded=0;fontColor=#FF0000;fontSize=14;" vertex="1" parent="1">
          <mxGeometry x="764" y="221" width="174" height="30" as="geometry" />
        </mxCell>
        <mxCell id="U9eTumjgss6MhKt13I3X-36" value="合成氨产品" style="rounded=1;whiteSpace=wrap;html=1;shadow=1;fontSize=14;" vertex="1" parent="1">
          <mxGeometry x="1081" y="342.5" width="115" height="31" as="geometry" />
        </mxCell>
        <mxCell id="U9eTumjgss6MhKt13I3X-42" value="风光发电" style="rounded=1;whiteSpace=wrap;html=1;fontSize=14;fillColor=#dae8fc;strokeColor=#6c8ebf;" vertex="1" parent="1">
          <mxGeometry x="245.5" y="809" width="86" height="43" as="geometry" />
        </mxCell>
        <mxCell id="U9eTumjgss6MhKt13I3X-43" value="" style="shape=flexArrow;endArrow=classic;html=1;rounded=0;width=6;endSize=5.33;fontSize=14;fillColor=#dae8fc;strokeColor=#6c8ebf;" edge="1" parent="1">
          <mxGeometry width="50" height="50" relative="1" as="geometry">
            <mxPoint x="144" y="830" as="sourcePoint" />
            <mxPoint x="217" y="830" as="targetPoint" />
          </mxGeometry>
        </mxCell>
        <mxCell id="U9eTumjgss6MhKt13I3X-44" value="风" style="text;html=1;align=center;verticalAlign=middle;whiteSpace=wrap;rounded=0;fontSize=14;" vertex="1" parent="1">
          <mxGeometry x="140.25" y="790" width="60" height="30" as="geometry" />
        </mxCell>
        <mxCell id="U9eTumjgss6MhKt13I3X-46" value="光" style="text;html=1;align=center;verticalAlign=middle;whiteSpace=wrap;rounded=0;fontSize=14;" vertex="1" parent="1">
          <mxGeometry x="140.25" y="838" width="60" height="30" as="geometry" />
        </mxCell>
        <mxCell id="U9eTumjgss6MhKt13I3X-47" value="电解制氢" style="rounded=1;whiteSpace=wrap;html=1;shadow=1;fontSize=14;fillColor=#dae8fc;strokeColor=#6c8ebf;" vertex="1" parent="1">
          <mxGeometry x="423" y="809" width="112.5" height="38" as="geometry" />
        </mxCell>
        <mxCell id="U9eTumjgss6MhKt13I3X-48" value="" style="endArrow=classic;html=1;rounded=0;fontSize=14;" edge="1" parent="1">
          <mxGeometry width="50" height="50" relative="1" as="geometry">
            <mxPoint x="546" y="827.5" as="sourcePoint" />
            <mxPoint x="693" y="828" as="targetPoint" />
          </mxGeometry>
        </mxCell>
        <mxCell id="U9eTumjgss6MhKt13I3X-49" value="" style="endArrow=classic;html=1;rounded=0;fontSize=14;" edge="1" parent="1">
          <mxGeometry width="50" height="50" relative="1" as="geometry">
            <mxPoint x="478.75" y="863.5" as="sourcePoint" />
            <mxPoint x="478.75" y="926.5" as="targetPoint" />
          </mxGeometry>
        </mxCell>
        <mxCell id="U9eTumjgss6MhKt13I3X-51" value="储氢装置" style="rounded=1;whiteSpace=wrap;html=1;shadow=1;fontSize=14;" vertex="1" parent="1">
          <mxGeometry x="427" y="936" width="106" height="31" as="geometry" />
        </mxCell>
        <mxCell id="U9eTumjgss6MhKt13I3X-54" value="H2" style="text;html=1;align=center;verticalAlign=middle;whiteSpace=wrap;rounded=0;fontSize=14;" vertex="1" parent="1">
          <mxGeometry x="544" y="785" width="83" height="30" as="geometry" />
        </mxCell>
        <mxCell id="U9eTumjgss6MhKt13I3X-58" value="合成氨装置" style="rounded=1;whiteSpace=wrap;html=1;shadow=1;fontSize=14;fillColor=#dae8fc;strokeColor=#6c8ebf;" vertex="1" parent="1">
          <mxGeometry x="711.5" y="809" width="115" height="31" as="geometry" />
        </mxCell>
        <mxCell id="U9eTumjgss6MhKt13I3X-59" value="空分" style="rounded=1;whiteSpace=wrap;html=1;shadow=1;fontSize=14;fillColor=#dae8fc;strokeColor=#6c8ebf;" vertex="1" parent="1">
          <mxGeometry x="874" y="716" width="70" height="31" as="geometry" />
        </mxCell>
        <mxCell id="U9eTumjgss6MhKt13I3X-60" value="" style="shape=flexArrow;endArrow=classic;html=1;rounded=0;width=6;endSize=5.33;fontSize=14;fillColor=#dae8fc;strokeColor=#6c8ebf;" edge="1" parent="1">
          <mxGeometry width="50" height="50" relative="1" as="geometry">
            <mxPoint x="1044" y="734" as="sourcePoint" />
            <mxPoint x="971" y="734" as="targetPoint" />
          </mxGeometry>
        </mxCell>
        <mxCell id="U9eTumjgss6MhKt13I3X-61" value="空气" style="text;html=1;align=center;verticalAlign=middle;whiteSpace=wrap;rounded=0;fontSize=14;" vertex="1" parent="1">
          <mxGeometry x="992" y="701" width="60" height="30" as="geometry" />
        </mxCell>
        <mxCell id="U9eTumjgss6MhKt13I3X-64" value="" style="endArrow=classic;html=1;rounded=0;fontSize=14;" edge="1" parent="1">
          <mxGeometry width="50" height="50" relative="1" as="geometry">
            <mxPoint x="845.5" y="824" as="sourcePoint" />
            <mxPoint x="916.5" y="824.5" as="targetPoint" />
          </mxGeometry>
        </mxCell>
        <mxCell id="U9eTumjgss6MhKt13I3X-70" value="合成氨产品" style="rounded=1;whiteSpace=wrap;html=1;shadow=1;fontSize=14;fillColor=#dae8fc;strokeColor=#6c8ebf;" vertex="1" parent="1">
          <mxGeometry x="933.5" y="809" width="100" height="31" as="geometry" />
        </mxCell>
        <mxCell id="U9eTumjgss6MhKt13I3X-72" value="" style="endArrow=classic;html=1;rounded=0;fontSize=14;" edge="1" parent="1">
          <mxGeometry width="50" height="50" relative="1" as="geometry">
            <mxPoint x="343" y="830" as="sourcePoint" />
            <mxPoint x="407" y="830" as="targetPoint" />
          </mxGeometry>
        </mxCell>
        <mxCell id="U9eTumjgss6MhKt13I3X-74" value="H2" style="text;html=1;align=center;verticalAlign=middle;whiteSpace=wrap;rounded=0;fontSize=14;" vertex="1" parent="1">
          <mxGeometry x="606.75" y="912" width="83" height="30" as="geometry" />
        </mxCell>
        <mxCell id="U9eTumjgss6MhKt13I3X-75" value="" style="edgeStyle=segmentEdgeStyle;endArrow=classic;html=1;curved=0;rounded=0;endSize=8;startSize=8;fontSize=14;" edge="1" parent="1">
          <mxGeometry width="50" height="50" relative="1" as="geometry">
            <mxPoint x="846" y="731" as="sourcePoint" />
            <mxPoint x="753" y="800" as="targetPoint" />
            <Array as="points">
              <mxPoint x="846" y="731" />
              <mxPoint x="753" y="731" />
            </Array>
          </mxGeometry>
        </mxCell>
        <mxCell id="U9eTumjgss6MhKt13I3X-76" value="N2" style="text;html=1;align=center;verticalAlign=middle;whiteSpace=wrap;rounded=0;fontSize=14;" vertex="1" parent="1">
          <mxGeometry x="763" y="694" width="83" height="30" as="geometry" />
        </mxCell>
        <mxCell id="U9eTumjgss6MhKt13I3X-90" value="" style="endArrow=classic;html=1;rounded=0;" edge="1" parent="1">
          <mxGeometry width="50" height="50" relative="1" as="geometry">
            <mxPoint x="287.91" y="875" as="sourcePoint" />
            <mxPoint x="287.91" y="916" as="targetPoint" />
          </mxGeometry>
        </mxCell>
        <mxCell id="U9eTumjgss6MhKt13I3X-97" value="" style="rounded=0;whiteSpace=wrap;html=1;fillColor=none;dashed=1;fontSize=14;" vertex="1" parent="1">
          <mxGeometry x="228" y="930" width="109" height="63" as="geometry" />
        </mxCell>
        <mxCell id="U9eTumjgss6MhKt13I3X-98" value="&lt;font style=&quot;font-size: 14px;&quot;&gt;绿电功率&lt;/font&gt;" style="rounded=0;whiteSpace=wrap;html=1;" vertex="1" parent="1">
          <mxGeometry x="242" y="944" width="81" height="38" as="geometry" />
        </mxCell>
        <mxCell id="U9eTumjgss6MhKt13I3X-99" value="" style="rounded=0;whiteSpace=wrap;html=1;fillColor=none;dashed=1;fontSize=14;" vertex="1" parent="1">
          <mxGeometry x="351.75" y="1041" width="255" height="124" as="geometry" />
        </mxCell>
        <mxCell id="U9eTumjgss6MhKt13I3X-100" value="&lt;span style=&quot;font-size: 14px;&quot;&gt;罐容积&lt;/span&gt;" style="rounded=0;whiteSpace=wrap;html=1;" vertex="1" parent="1">
          <mxGeometry x="436.25" y="1055" width="81" height="38" as="geometry" />
        </mxCell>
        <mxCell id="U9eTumjgss6MhKt13I3X-101" value="&lt;span style=&quot;font-size: 14px;&quot;&gt;最高压力&lt;/span&gt;" style="rounded=0;whiteSpace=wrap;html=1;" vertex="1" parent="1">
          <mxGeometry x="366.75" y="1109" width="81" height="38" as="geometry" />
        </mxCell>
        <mxCell id="U9eTumjgss6MhKt13I3X-102" value="&lt;span style=&quot;font-size: 14px;&quot;&gt;最低压力&lt;/span&gt;" style="rounded=0;whiteSpace=wrap;html=1;" vertex="1" parent="1">
          <mxGeometry x="500.75" y="1109" width="81" height="38" as="geometry" />
        </mxCell>
        <mxCell id="U9eTumjgss6MhKt13I3X-103" value="" style="endArrow=classic;html=1;rounded=0;" edge="1" parent="1">
          <mxGeometry width="50" height="50" relative="1" as="geometry">
            <mxPoint x="477.91" y="975" as="sourcePoint" />
            <mxPoint x="477.91" y="1016" as="targetPoint" />
          </mxGeometry>
        </mxCell>
        <mxCell id="U9eTumjgss6MhKt13I3X-104" value="" style="endArrow=classic;html=1;rounded=0;" edge="1" parent="1">
          <mxGeometry width="50" height="50" relative="1" as="geometry">
            <mxPoint x="480.34965517241403" y="803" as="sourcePoint" />
            <mxPoint x="480.34965517241403" y="762" as="targetPoint" />
          </mxGeometry>
        </mxCell>
        <mxCell id="U9eTumjgss6MhKt13I3X-105" value="" style="rounded=0;whiteSpace=wrap;html=1;fillColor=none;dashed=1;fontSize=14;" vertex="1" parent="1">
          <mxGeometry x="361" y="631" width="291" height="124" as="geometry" />
        </mxCell>
        <mxCell id="U9eTumjgss6MhKt13I3X-106" value="&lt;span style=&quot;font-size: 14px;&quot;&gt;电解槽数量&lt;/span&gt;" style="rounded=0;whiteSpace=wrap;html=1;" vertex="1" parent="1">
          <mxGeometry x="376" y="644" width="81" height="38" as="geometry" />
        </mxCell>
        <mxCell id="U9eTumjgss6MhKt13I3X-107" value="&lt;span style=&quot;font-size: 14px;&quot;&gt;最高负荷&lt;/span&gt;" style="rounded=0;whiteSpace=wrap;html=1;" vertex="1" parent="1">
          <mxGeometry x="472" y="644" width="81" height="38" as="geometry" />
        </mxCell>
        <mxCell id="U9eTumjgss6MhKt13I3X-108" value="&lt;span style=&quot;font-size: 14px;&quot;&gt;最低负荷&lt;/span&gt;" style="rounded=0;whiteSpace=wrap;html=1;" vertex="1" parent="1">
          <mxGeometry x="564" y="644" width="81" height="38" as="geometry" />
        </mxCell>
        <mxCell id="U9eTumjgss6MhKt13I3X-109" value="&lt;p style=&quot;margin: 0pt 0pt 0.0001pt; font-family: 宋体; font-size: 12pt; text-align: start;&quot; class=&quot;MsoNormal&quot;&gt;&lt;span style=&quot;font-family: &amp;quot;Times New Roman Regular&amp;quot;; font-size: 12pt;&quot;&gt;100%&lt;/span&gt;&lt;span style=&quot;font-size: 12pt;&quot;&gt;负荷耗电量&lt;/span&gt;&lt;/p&gt;" style="rounded=0;whiteSpace=wrap;html=1;" vertex="1" parent="1">
          <mxGeometry x="393" y="705" width="138" height="38" as="geometry" />
        </mxCell>
        <mxCell id="U9eTumjgss6MhKt13I3X-110" value="&lt;p style=&quot;margin: 0pt 0pt 0.0001pt; font-size: 12pt; text-align: start;&quot; class=&quot;MsoNormal&quot;&gt;&lt;font face=&quot;Times New Roman Regular&quot;&gt;单台产能&lt;/font&gt;&lt;/p&gt;" style="rounded=0;whiteSpace=wrap;html=1;" vertex="1" parent="1">
          <mxGeometry x="542.75" y="705" width="85.5" height="38" as="geometry" />
        </mxCell>
        <mxCell id="U9eTumjgss6MhKt13I3X-112" value="" style="edgeStyle=segmentEdgeStyle;endArrow=classic;html=1;curved=0;rounded=0;endSize=8;startSize=8;" edge="1" parent="1">
          <mxGeometry width="50" height="50" relative="1" as="geometry">
            <mxPoint x="538" y="952" as="sourcePoint" />
            <mxPoint x="752" y="856" as="targetPoint" />
            <Array as="points">
              <mxPoint x="752" y="952" />
            </Array>
          </mxGeometry>
        </mxCell>
        <mxCell id="U9eTumjgss6MhKt13I3X-113" value="" style="rounded=0;whiteSpace=wrap;html=1;fillColor=none;dashed=1;fontSize=14;" vertex="1" parent="1">
          <mxGeometry x="724" y="1041" width="318" height="124" as="geometry" />
        </mxCell>
        <mxCell id="U9eTumjgss6MhKt13I3X-114" value="&lt;span style=&quot;font-size: 14px;&quot;&gt;规模大小&lt;/span&gt;" style="rounded=0;whiteSpace=wrap;html=1;" vertex="1" parent="1">
          <mxGeometry x="757" y="1055" width="81" height="38" as="geometry" />
        </mxCell>
        <mxCell id="U9eTumjgss6MhKt13I3X-115" value="&lt;span style=&quot;font-size: 14px;&quot;&gt;最高负荷&lt;/span&gt;" style="rounded=0;whiteSpace=wrap;html=1;" vertex="1" parent="1">
          <mxGeometry x="847" y="1055" width="81" height="38" as="geometry" />
        </mxCell>
        <mxCell id="U9eTumjgss6MhKt13I3X-116" value="&lt;span style=&quot;font-size: 14px;&quot;&gt;最低负荷&lt;/span&gt;" style="rounded=0;whiteSpace=wrap;html=1;" vertex="1" parent="1">
          <mxGeometry x="941" y="1055" width="81" height="38" as="geometry" />
        </mxCell>
        <mxCell id="U9eTumjgss6MhKt13I3X-117" value="&lt;p style=&quot;margin: 0pt 0pt 0.0001pt; font-family: 宋体; font-size: 12pt; text-align: start;&quot; class=&quot;MsoNormal&quot;&gt;&lt;span style=&quot;font-family: &amp;quot;Times New Roman Regular&amp;quot;; font-size: 12pt;&quot;&gt;100%&lt;/span&gt;&lt;span style=&quot;font-size: 12pt;&quot;&gt;负荷耗电量&lt;/span&gt;&lt;/p&gt;" style="rounded=0;whiteSpace=wrap;html=1;" vertex="1" parent="1">
          <mxGeometry x="739" y="1115" width="138" height="38" as="geometry" />
        </mxCell>
        <mxCell id="U9eTumjgss6MhKt13I3X-118" value="&lt;p style=&quot;margin: 0pt 0pt 0.0001pt; font-family: 宋体; font-size: 12pt; text-align: start;&quot; class=&quot;MsoNormal&quot;&gt;&lt;span style=&quot;font-size: 12pt;&quot;&gt;吨产品氢气消耗量&lt;/span&gt;&lt;/p&gt;" style="rounded=0;whiteSpace=wrap;html=1;" vertex="1" parent="1">
          <mxGeometry x="900" y="1115" width="135" height="38" as="geometry" />
        </mxCell>
        <mxCell id="U9eTumjgss6MhKt13I3X-119" value="" style="endArrow=classic;html=1;rounded=0;" edge="1" parent="1">
          <mxGeometry width="50" height="50" relative="1" as="geometry">
            <mxPoint x="790" y="862" as="sourcePoint" />
            <mxPoint x="790" y="1030" as="targetPoint" />
          </mxGeometry>
        </mxCell>
        <mxCell id="U9eTumjgss6MhKt13I3X-120" value="影响因素" style="text;html=1;align=center;verticalAlign=middle;whiteSpace=wrap;rounded=0;fontColor=#FF0000;fontSize=14;" vertex="1" parent="1">
          <mxGeometry x="475" y="769" width="83" height="30" as="geometry" />
        </mxCell>
        <mxCell id="U9eTumjgss6MhKt13I3X-121" value="影响因素" style="text;html=1;align=center;verticalAlign=middle;whiteSpace=wrap;rounded=0;fontColor=#FF0000;fontSize=14;" vertex="1" parent="1">
          <mxGeometry x="475" y="976" width="83" height="30" as="geometry" />
        </mxCell>
        <mxCell id="U9eTumjgss6MhKt13I3X-122" value="影响因素" style="text;html=1;align=center;verticalAlign=middle;whiteSpace=wrap;rounded=0;fontColor=#FF0000;fontSize=14;" vertex="1" parent="1">
          <mxGeometry x="293" y="876" width="83" height="30" as="geometry" />
        </mxCell>
        <mxCell id="U9eTumjgss6MhKt13I3X-123" value="影响因素" style="text;html=1;align=center;verticalAlign=middle;whiteSpace=wrap;rounded=0;fontColor=#FF0000;fontSize=14;" vertex="1" parent="1">
          <mxGeometry x="823.5" y="926" width="83" height="30" as="geometry" />
        </mxCell>
      </root>
    </mxGraphModel>
  </diagram>
  <diagram id="xRj2jmk1qxW8SIagM4jF" name="第 2 页">
    <mxGraphModel dx="1434" dy="697" grid="0" gridSize="10" guides="1" tooltips="1" connect="1" arrows="1" fold="1" page="1" pageScale="1" pageWidth="2339" pageHeight="3300" math="0" shadow="0">
      <root>
        <mxCell id="0" />
        <mxCell id="1" parent="0" />
        <mxCell id="DSlkG7H821yX9vVmTWFP-37" value="" style="rounded=0;whiteSpace=wrap;html=1;fillColor=none;dashed=1;" vertex="1" parent="1">
          <mxGeometry x="268" y="123" width="623" height="604" as="geometry" />
        </mxCell>
        <mxCell id="DSlkG7H821yX9vVmTWFP-39" value="" style="rounded=0;whiteSpace=wrap;html=1;fillColor=none;dashed=1;" vertex="1" parent="1">
          <mxGeometry x="934" y="123" width="177" height="604" as="geometry" />
        </mxCell>
        <mxCell id="DSlkG7H821yX9vVmTWFP-1" value="研究思路" style="rounded=1;whiteSpace=wrap;html=1;arcSize=50;fontSize=14;" vertex="1" parent="1">
          <mxGeometry x="86" y="59" width="129" height="47" as="geometry" />
        </mxCell>
        <mxCell id="DSlkG7H821yX9vVmTWFP-2" value="提出问题" style="rounded=0;whiteSpace=wrap;html=1;fontSize=14;" vertex="1" parent="1">
          <mxGeometry x="86" y="155" width="126" height="129" as="geometry" />
        </mxCell>
        <mxCell id="DSlkG7H821yX9vVmTWFP-3" value="研究问题" style="rounded=0;whiteSpace=wrap;html=1;fontSize=14;" vertex="1" parent="1">
          <mxGeometry x="86" y="327" width="126" height="244" as="geometry" />
        </mxCell>
        <mxCell id="DSlkG7H821yX9vVmTWFP-4" value="实践应用" style="rounded=0;whiteSpace=wrap;html=1;fontSize=14;" vertex="1" parent="1">
          <mxGeometry x="84" y="618" width="126" height="92" as="geometry" />
        </mxCell>
        <mxCell id="DSlkG7H821yX9vVmTWFP-5" value="&lt;font&gt;&lt;font&gt;问题：&lt;/font&gt;&lt;span style=&quot;font-family: 宋体; text-align: start; background-color: initial;&quot;&gt;某化工企业绿氨生产最优负荷调度策略研究&lt;/span&gt;&lt;/font&gt;" style="rounded=0;whiteSpace=wrap;html=1;fontSize=14;" vertex="1" parent="1">
          <mxGeometry x="286" y="152" width="575" height="33" as="geometry" />
        </mxCell>
        <mxCell id="DSlkG7H821yX9vVmTWFP-6" value="研究的背景和意义" style="rounded=0;whiteSpace=wrap;html=1;fontSize=14;" vertex="1" parent="1">
          <mxGeometry x="331" y="200" width="204" height="33" as="geometry" />
        </mxCell>
        <mxCell id="DSlkG7H821yX9vVmTWFP-7" value="国内外研究现状" style="rounded=0;whiteSpace=wrap;html=1;fontSize=14;" vertex="1" parent="1">
          <mxGeometry x="579" y="200" width="204" height="33" as="geometry" />
        </mxCell>
        <mxCell id="DSlkG7H821yX9vVmTWFP-8" value="文献整理" style="rounded=0;whiteSpace=wrap;html=1;fontSize=14;" vertex="1" parent="1">
          <mxGeometry x="284" y="249" width="121" height="33" as="geometry" />
        </mxCell>
        <mxCell id="DSlkG7H821yX9vVmTWFP-9" value="模型设计" style="rounded=0;whiteSpace=wrap;html=1;fontSize=14;" vertex="1" parent="1">
          <mxGeometry x="493" y="249" width="121" height="33" as="geometry" />
        </mxCell>
        <mxCell id="DSlkG7H821yX9vVmTWFP-10" value="绿氨影响因素" style="rounded=0;whiteSpace=wrap;html=1;fontSize=14;" vertex="1" parent="1">
          <mxGeometry x="738" y="249" width="121" height="33" as="geometry" />
        </mxCell>
        <mxCell id="DSlkG7H821yX9vVmTWFP-11" value="" style="rounded=0;whiteSpace=wrap;html=1;fontSize=14;" vertex="1" parent="1">
          <mxGeometry x="284" y="327" width="575" height="84" as="geometry" />
        </mxCell>
        <mxCell id="DSlkG7H821yX9vVmTWFP-12" value="&lt;span style=&quot;font-size: 14px;&quot;&gt;绿氨生产流程分析以及模型设计&lt;/span&gt;" style="text;html=1;align=center;verticalAlign=middle;whiteSpace=wrap;rounded=0;" vertex="1" parent="1">
          <mxGeometry x="417" y="331" width="299" height="30" as="geometry" />
        </mxCell>
        <mxCell id="DSlkG7H821yX9vVmTWFP-13" value="影响因素分析" style="rounded=0;whiteSpace=wrap;html=1;fontSize=14;" vertex="1" parent="1">
          <mxGeometry x="335" y="364" width="123" height="33" as="geometry" />
        </mxCell>
        <mxCell id="DSlkG7H821yX9vVmTWFP-14" value="离网型模型" style="rounded=0;whiteSpace=wrap;html=1;fontSize=14;" vertex="1" parent="1">
          <mxGeometry x="512" y="362" width="123" height="33" as="geometry" />
        </mxCell>
        <mxCell id="DSlkG7H821yX9vVmTWFP-15" value="并网型模型" style="rounded=0;whiteSpace=wrap;html=1;fontSize=14;" vertex="1" parent="1">
          <mxGeometry x="693" y="361" width="123" height="33" as="geometry" />
        </mxCell>
        <mxCell id="DSlkG7H821yX9vVmTWFP-16" value="" style="rounded=0;whiteSpace=wrap;html=1;fontSize=14;" vertex="1" parent="1">
          <mxGeometry x="284" y="433" width="575" height="135" as="geometry" />
        </mxCell>
        <mxCell id="DSlkG7H821yX9vVmTWFP-17" value="&lt;span style=&quot;font-size: 14px;&quot;&gt;模型构建以及求解&lt;/span&gt;" style="text;html=1;align=center;verticalAlign=middle;whiteSpace=wrap;rounded=0;" vertex="1" parent="1">
          <mxGeometry x="417" y="437" width="299" height="30" as="geometry" />
        </mxCell>
        <mxCell id="DSlkG7H821yX9vVmTWFP-18" value="参数说明" style="rounded=0;whiteSpace=wrap;html=1;fontSize=14;" vertex="1" parent="1">
          <mxGeometry x="335" y="470" width="123" height="33" as="geometry" />
        </mxCell>
        <mxCell id="DSlkG7H821yX9vVmTWFP-19" value="目标函数构建" style="rounded=0;whiteSpace=wrap;html=1;fontSize=14;" vertex="1" parent="1">
          <mxGeometry x="512" y="468" width="123" height="33" as="geometry" />
        </mxCell>
        <mxCell id="DSlkG7H821yX9vVmTWFP-20" value="模型约束条件" style="rounded=0;whiteSpace=wrap;html=1;fontSize=14;" vertex="1" parent="1">
          <mxGeometry x="693" y="467" width="123" height="33" as="geometry" />
        </mxCell>
        <mxCell id="DSlkG7H821yX9vVmTWFP-21" value="求解方法" style="rounded=0;whiteSpace=wrap;html=1;fontSize=14;" vertex="1" parent="1">
          <mxGeometry x="417" y="516" width="123" height="33" as="geometry" />
        </mxCell>
        <mxCell id="DSlkG7H821yX9vVmTWFP-22" value="算例分析" style="rounded=0;whiteSpace=wrap;html=1;fontSize=14;" vertex="1" parent="1">
          <mxGeometry x="612" y="516" width="123" height="33" as="geometry" />
        </mxCell>
        <mxCell id="DSlkG7H821yX9vVmTWFP-24" value="" style="rounded=0;whiteSpace=wrap;html=1;fontSize=14;" vertex="1" parent="1">
          <mxGeometry x="281" y="618" width="575" height="91" as="geometry" />
        </mxCell>
        <mxCell id="DSlkG7H821yX9vVmTWFP-25" value="&lt;span style=&quot;font-size: 14px;&quot;&gt;模型应用&lt;/span&gt;" style="text;html=1;align=center;verticalAlign=middle;whiteSpace=wrap;rounded=0;" vertex="1" parent="1">
          <mxGeometry x="414" y="622" width="299" height="30" as="geometry" />
        </mxCell>
        <mxCell id="DSlkG7H821yX9vVmTWFP-26" value="新建任务" style="rounded=0;whiteSpace=wrap;html=1;fontSize=14;" vertex="1" parent="1">
          <mxGeometry x="332" y="655" width="123" height="33" as="geometry" />
        </mxCell>
        <mxCell id="DSlkG7H821yX9vVmTWFP-27" value="任务管理" style="rounded=0;whiteSpace=wrap;html=1;fontSize=14;" vertex="1" parent="1">
          <mxGeometry x="509" y="653" width="123" height="33" as="geometry" />
        </mxCell>
        <mxCell id="DSlkG7H821yX9vVmTWFP-28" value="运行结果" style="rounded=0;whiteSpace=wrap;html=1;fontSize=14;" vertex="1" parent="1">
          <mxGeometry x="690" y="652" width="123" height="33" as="geometry" />
        </mxCell>
        <mxCell id="DSlkG7H821yX9vVmTWFP-31" value="研究内容" style="rounded=1;whiteSpace=wrap;html=1;arcSize=50;fontSize=14;" vertex="1" parent="1">
          <mxGeometry x="514" y="59" width="129" height="47" as="geometry" />
        </mxCell>
        <mxCell id="DSlkG7H821yX9vVmTWFP-32" value="研究方法 / 工具" style="rounded=1;whiteSpace=wrap;html=1;arcSize=50;fontSize=14;" vertex="1" parent="1">
          <mxGeometry x="964" y="59" width="129" height="47" as="geometry" />
        </mxCell>
        <mxCell id="DSlkG7H821yX9vVmTWFP-33" value="文献分析" style="rounded=0;whiteSpace=wrap;html=1;fontSize=14;" vertex="1" parent="1">
          <mxGeometry x="971.5" y="152" width="114" height="135" as="geometry" />
        </mxCell>
        <mxCell id="DSlkG7H821yX9vVmTWFP-34" value="数据分析&lt;div&gt;动态规划&lt;/div&gt;&lt;div&gt;多目标问题求解&lt;/div&gt;&lt;div&gt;启发式算法&lt;/div&gt;&lt;div&gt;参数处理&lt;/div&gt;&lt;div&gt;实验法&lt;/div&gt;&lt;div&gt;数量研究法&lt;/div&gt;&lt;div&gt;图表可视化&lt;/div&gt;" style="rounded=0;whiteSpace=wrap;html=1;fontSize=14;" vertex="1" parent="1">
          <mxGeometry x="971.5" y="327" width="117.5" height="241" as="geometry" />
        </mxCell>
        <mxCell id="DSlkG7H821yX9vVmTWFP-35" value="归纳总结" style="rounded=0;whiteSpace=wrap;html=1;fontSize=14;" vertex="1" parent="1">
          <mxGeometry x="971.5" y="615" width="120.5" height="90" as="geometry" />
        </mxCell>
        <mxCell id="DSlkG7H821yX9vVmTWFP-36" value="" style="rounded=0;whiteSpace=wrap;html=1;fillColor=none;dashed=1;" vertex="1" parent="1">
          <mxGeometry x="60" y="123" width="177" height="604" as="geometry" />
        </mxCell>
      </root>
    </mxGraphModel>
  </diagram>
</mxfile>
